<?xml version="1.0" encoding="UTF-8"?>
<svg id="Layer_2" data-name="Layer 2" xmlns="http://www.w3.org/2000/svg" viewBox="0 0 292.33 128.57">
  <defs>
    <style>
      .cls-1 {
        fill: #fff;
        stroke-width: 0px;
      }
    </style>
  </defs>
  <g id="Layer_1-2" data-name="Layer 1">
    <g>
      <path class="cls-1" d="M132.81,38.51c-3.45,0-6.89,0-10.34,0-1.02,0-1,0-1.06-1.06-.1-1.74-.48-3.43-1.23-5.01-1.29-2.7-3.45-4.35-6.32-5.02-3.49-.82-6.93-.61-10.2.96-3.1,1.49-5.26,3.94-6.87,6.92-1.88,3.46-2.84,7.19-3.32,11.08-.44,3.58-.44,7.15.13,10.71.55,3.38,1.54,6.59,3.88,9.22,2.06,2.32,4.71,3.44,7.76,3.74,2.32.22,4.58.01,6.73-.91,3.43-1.47,5.48-4.19,6.69-7.62.32-.92.58-1.86.77-2.81.11-.53.33-.66.83-.66,6.15.01,12.31,0,18.46,0,1.27,0,2.55.01,3.82,0,.42,0,.58.13.52.56-.67,4.62-1.92,9.06-4.11,13.21-4.14,7.84-10.56,12.91-18.95,15.57-4.65,1.47-9.43,2.04-14.3,2.1-4.63.06-9.18-.4-13.6-1.81-8.04-2.55-14.05-7.55-18.02-14.99-2.3-4.31-3.62-8.94-4.31-13.76-.46-3.18-.66-6.38-.57-9.59.23-8.6,2.13-16.76,6.72-24.14,5.36-8.62,13.02-14.09,22.88-16.48,4.47-1.08,9.01-1.31,13.58-1.06,5.02.28,9.9,1.23,14.52,3.31,7.44,3.35,12.4,8.95,15.1,16.6,1.19,3.38,1.8,6.88,2.15,10.43.05.49-.21.5-.57.5-3.58,0-7.17,0-10.75,0Z"/>
      <path class="cls-1" d="M22.72,54.93c-.18,1.19-.38,2.36-.53,3.53-.27,2.21-.56,4.41-.74,6.63-.06.73.12,1.51.33,2.23.63,2.16,2.29,3.5,4.52,3.64.81.05,1.64,0,2.43-.15,2.15-.39,3.44-1.8,3.97-3.84.44-1.67.69-3.39.97-5.09.6-3.65,1.16-7.3,1.73-10.95.66-4.2,1.33-8.4,1.99-12.6.77-4.87,1.55-9.74,2.32-14.61.7-4.42,1.4-8.84,2.09-13.26.02-.1.04-.2.04-.29,0-.57.27-.74.86-.74,7.51.02,15.02.02,22.52.02.21,0,.43,0,.71,0-.21,1.38-.41,2.67-.61,3.96-.7,4.44-1.4,8.88-2.1,13.32-.7,4.42-1.39,8.84-2.08,13.26-.7,4.46-1.4,8.91-2.1,13.37-.55,3.51-1.12,7.03-1.65,10.54-.51,3.42-1.32,6.75-2.64,9.95-3.22,7.79-9.02,12.54-17.16,14.51-3.19.77-6.43,1.08-9.7,1.14-4.1.07-8.15-.24-12.11-1.37-4.61-1.31-8.63-3.58-11.61-7.44-2.28-2.96-3.55-6.33-3.97-10.03-.44-3.86-.14-7.71.34-11.55.16-1.28.41-2.55.61-3.83.05-.33.2-.43.52-.43,6.91,0,13.82,0,20.73,0,.08,0,.15.03.31.06Z"/>
      <path class="cls-1" d="M240.44.01c6.49,0,12.98,0,19.48-.01.55,0,.74.11.77.71.16,2.93.79,5.75,2.1,8.39,2.3,4.63,6.04,7.28,11.11,8.09.88.14,1.78.24,2.67.23.63,0,.87.25.92.8.19,2.06.49,4.11.53,6.18.18,7.83-1.22,15.44-3.54,22.89-2.82,9.07-7.02,17.48-12.23,25.41-6.07,9.24-13.31,17.47-21.34,25.04-.31.29-.55.38-.91.05-10.52-9.91-19.65-20.91-26.52-33.69-3.78-7.04-6.72-14.42-8.6-22.19-1.38-5.69-2.17-11.45-2.07-17.31.04-2.1.34-4.2.57-6.29.09-.84.16-.82,1.03-.85,4.25-.16,8.07-1.39,11.07-4.56,2.17-2.29,3.45-5.05,4.11-8.09.3-1.36.46-2.74.6-4.13.05-.52.19-.66.7-.66,6.51.02,13.02.01,19.54.01ZM212.34,27.36s-.07.01-.11.02c.3,2.61.5,5.23.93,7.81,1.15,6.93,3.33,13.54,6.26,19.91,5.03,10.94,11.99,20.52,20.42,29.07.36.37.58.39.95,0,3.54-3.6,6.84-7.39,9.87-11.43,4.18-5.58,7.78-11.51,10.66-17.86,3.36-7.42,5.76-15.12,6.66-23.24.21-1.89.26-3.81.26-5.72,0-1.68-.08-1.67-1.64-2.27-3.91-1.5-7.41-3.59-10.08-6.9-1.72-2.13-2.9-4.52-3.27-7.25-.08-.61-.26-.78-.88-.78-7.89.02-15.77.01-23.66.01-1.12,0-1.12,0-1.32,1.06-.72,3.82-2.72,6.88-5.61,9.4-2.5,2.17-5.39,3.66-8.5,4.73-.51.17-.75.45-.78.98-.04.81-.1,1.63-.16,2.44Z"/>
      <path class="cls-1" d="M149.76,87.64c.26-1.69.5-3.28.74-4.87.62-4.03,1.23-8.06,1.85-12.08.66-4.3,1.32-8.61,1.97-12.91.66-4.32,1.32-8.65,1.98-12.97.62-4.05,1.24-8.09,1.86-12.14.62-4.03,1.23-8.06,1.84-12.08.53-3.5,1.07-6.99,1.59-10.49.07-.47.22-.66.75-.66,7.57.02,15.14.01,22.7.01.18,0,.35,0,.62,0-.16,1.08-.3,2.09-.45,3.1-.79,5.19-1.58,10.38-2.37,15.57-.78,5.07-1.56,10.14-2.34,15.2-.78,5.09-1.54,10.18-2.32,15.27-.77,5.07-1.56,10.14-2.34,15.21-.66,4.32-1.31,8.65-1.96,12.97-.13.87-.12.88-1.03.88-7.43,0-14.86,0-22.29,0h-.82Z"/>
      <path class="cls-1" d="M90.54,128.16c.55-1.48,1.07-2.87,1.6-4.26,2.22-5.87,4.45-11.74,6.65-17.62.23-.6.51-.81,1.15-.78,1.19.06,2.39.04,3.58,0,.48-.01.69.13.86.59,2.38,6.41,4.77,12.81,7.17,19.21.35.93.69,1.85,1.07,2.86-1.67,0-3.26.01-4.85-.02-.13,0-.31-.27-.37-.44-.48-1.35-.95-2.7-1.39-4.06-.12-.38-.29-.53-.71-.53-2.51.02-5.02.02-7.53,0-.41,0-.6.12-.73.51-.44,1.34-.94,2.66-1.39,3.99-.13.39-.3.57-.75.56-1.41-.03-2.82-.01-4.36-.01ZM101.67,111.1c-.06,0-.13,0-.19,0-.98,2.77-1.96,5.53-2.96,8.36h6.02c-.97-2.83-1.92-5.59-2.87-8.36Z"/>
      <path class="cls-1" d="M147.98,120.03c-.29,1.25-.43,2.56-.89,3.74-1.2,3.03-3.64,4.46-6.8,4.74-1.53.13-3.06.01-4.51-.58-2.96-1.2-4.41-3.51-4.82-6.57-.22-1.68-.09-3.34.51-4.93,1.19-3.12,3.57-4.68,6.79-5.04,1.53-.17,3.06-.03,4.51.56,3.08,1.23,4.57,3.61,4.96,6.79.05.41.05.83.07,1.25l.16.04ZM135.25,119.8c.08.77.11,1.36.2,1.95.33,2.13,1.66,3.42,3.57,3.51,2.2.1,3.57-.92,4.12-3.14.4-1.59.37-3.19-.13-4.76-.58-1.82-1.96-2.74-3.94-2.71-1.63.03-3,1.11-3.46,2.85-.21.8-.27,1.64-.37,2.3Z"/>
      <path class="cls-1" d="M113.51,122.98c.18-.03.31-.08.44-.08,1.08,0,2.15-.02,3.23.01.19,0,.49.23.52.39.24,1.23,1.04,1.87,2.18,2.18,1.01.28,2.01.26,2.98-.13.91-.37,1.42-1.04,1.38-1.83-.04-.89-.66-1.35-1.41-1.58-1.46-.44-2.96-.77-4.42-1.2-.91-.27-1.83-.56-2.67-.99-1.52-.79-2.01-2.16-1.85-3.82.18-1.92,1.19-3.25,2.98-3.89,2.83-1.01,5.7-1.08,8.48.16,1.55.69,2.44,1.99,2.77,3.66.03.17,0,.35,0,.58-1.31,0-2.58,0-3.85-.01-.1,0-.28-.17-.3-.28-.24-1.16-1.06-1.67-2.11-1.8-.78-.09-1.58-.04-2.36.06-.6.08-1.05.46-1.17,1.11-.13.7.12,1.28.75,1.53,1.01.4,2.06.68,3.11.98,1.07.3,2.17.5,3.22.85,1.56.52,2.88,1.42,3.16,3.17.35,2.19-.3,4.26-2.62,5.46-.93.48-2.01.76-3.06.9-1.92.26-3.86.17-5.71-.52-2.01-.75-3.33-2.12-3.63-4.33-.03-.19-.03-.39-.05-.6Z"/>
      <path class="cls-1" d="M288.53,86.42c.5-1.33,1-2.67,1.51-4,.26-.69.54-1.37.77-2.07.23-.68.79-.4,1.21-.39.11,0,.29.41.29.63.02,2.13.02,4.26.01,6.39,0,.32.11.72-.45.71-.52-.01-.42-.38-.42-.68,0-1.69,0-3.38,0-5.08v-.58c-.05-.02-.1-.03-.15-.05-.09.17-.19.33-.26.51-.67,1.77-1.33,3.54-1.99,5.31-.11.3-.2.59-.63.59-.43,0-.52-.29-.63-.59-.66-1.77-1.32-3.54-1.98-5.31-.06-.17-.15-.33-.23-.5-.06.01-.12.03-.18.04,0,.18,0,.37,0,.55,0,1.73,0,3.46,0,5.19,0,.31.01.61-.44.6-.46,0-.43-.3-.43-.61,0-2.17,0-4.34,0-6.51,0-.25-.11-.64.33-.63.41,0,.94-.25,1.17.38.51,1.4,1.04,2.79,1.57,4.19.24.64.49,1.28.73,1.92.06,0,.12,0,.18-.01Z"/>
      <path class="cls-1" d="M279.98,84.18c0-.9,0-1.79,0-2.69q0-.85-.88-.85c-.44,0-.88.03-1.31-.02-.16-.02-.29-.23-.44-.35.15-.12.29-.33.44-.34,1.75-.02,3.5-.02,5.25,0,.15,0,.3.21.45.32-.16.13-.31.35-.48.36-.47.05-.95.04-1.43.02-.53-.03-.74.15-.73.71.03,1.91.02,3.82,0,5.73,0,.2-.16.52-.31.57-.37.13-.59-.05-.58-.49.02-.99,0-1.99,0-2.98Z"/>
      <path class="cls-1" d="M219.1,36.67c.03-11.83,9.52-21.31,21.31-21.29,11.84.02,21.35,9.57,21.32,21.43-.03,11.72-9.62,21.24-21.37,21.21-11.81-.03-21.3-9.56-21.27-21.35ZM228.31,25.38c-.69-.67-1.35-1.27-1.97-1.91-.31-.32-.51-.28-.75.05-.67.91-1.41,1.78-2.02,2.74-1.8,2.85-2.77,5.97-2.95,9.34-.02.45.14.61.57.6.66-.02,1.32-.04,1.97,0,.59.04.75-.22.78-.76.09-1.91.59-3.72,1.35-5.47.72-1.66,1.73-3.13,3.02-4.59ZM229.18,24.5c.12-.1.28-.25.46-.38,1-.69,1.95-1.44,3-2.04,2.03-1.15,4.24-1.78,6.58-1.9.49-.03.66-.21.63-.69-.04-.63-.04-1.27,0-1.91.04-.58-.16-.76-.74-.72-3.72.27-7.1,1.46-10.14,3.61-.75.53-1.45,1.15-2.12,1.69.82.82,1.56,1.56,2.33,2.33ZM253.99,51.13c-.73-.72-1.39-1.4-2.1-2.04-.1-.09-.44-.03-.57.08-2.84,2.43-6.12,3.8-9.86,4.05-.36.02-.49.17-.49.52,0,.72.03,1.43,0,2.15-.03.55.2.68.71.64,2.56-.21,5.02-.82,7.33-1.94,1.8-.87,3.43-1.98,4.98-3.45ZM222.28,37.32c-.4,0-.8.01-1.19,0-.37-.02-.51.14-.47.5.09.77.13,1.55.26,2.31.66,3.73,2.26,7.01,4.78,9.84.26.29.44.32.72.03.47-.51.96-1.01,1.48-1.47.38-.35.41-.58.05-1-2.36-2.73-3.71-5.9-3.96-9.51-.04-.53-.22-.75-.76-.69-.29.04-.6,0-.89,0ZM226.91,51.1c.06.11.07.18.11.21,3.5,3.18,7.62,4.89,12.33,5.2.36.02.5-.13.49-.49-.01-.76-.02-1.51,0-2.27.01-.43-.19-.52-.57-.56-.75-.07-1.5-.16-2.24-.31-2.81-.57-5.28-1.82-7.46-3.67-.15-.13-.5-.26-.57-.19-.72.67-1.41,1.38-2.1,2.07ZM254.92,23.01c-.8.83-1.47,1.48-2.09,2.17-.09.1-.1.45,0,.53.42.38.86.75,1.35,1.05.59.35,1.23.62,1.86.93-.35.66-.9.33-1.44.39.14.27.25.49.36.71,1.17,2.15,1.8,4.45,1.97,6.88.03.39.18.52.55.51.74-.01,1.47-.01,2.21,0,.42,0,.55-.17.53-.58-.2-3.3-1.11-6.38-2.86-9.18-.71-1.14-1.56-2.19-2.44-3.41ZM249.43,21.1c.26.34.46.53.58.76.29.56.53,1.16.84,1.71.17.3.42.56.67.82.07.07.3.1.35.04.72-.69,1.43-1.41,2.16-2.14-1.23-1.2-2.52-2.12-3.91-2.91-2.63-1.48-5.44-2.31-8.45-2.51-.51-.03-.73.1-.71.65.03.66.03,1.31,0,1.97-.02.48.16.67.65.7,2.65.15,5.1.97,7.38,2.33.13.08.27.13.44.22v-1.64ZM252.42,47.95c.79.79,1.45,1.47,2.15,2.12.09.08.45,0,.56-.11,3.09-3.46,4.78-7.51,5.07-12.14.02-.37-.12-.5-.48-.49-.72.01-1.43.03-2.15,0-.44-.02-.64.11-.67.58-.11,1.72-.49,3.38-1.14,4.97-.16.4-.33.8-.51,1.21.21.12.42.18.54.31.15.16.22.39.32.59-.16.08-.32.17-.48.24-.21.1-.48.14-.64.3-.85.77-1.67,1.56-2.58,2.42ZM226.5,36.18c.28,0,.56,0,.84,0,.38.02.52-.16.55-.53.2-2.68,1.21-5.04,2.93-7.09.22-.26.2-.43-.04-.64-.39-.37-.79-.73-1.14-1.14-.37-.44-.59-.33-.91.06-1.9,2.32-3.09,4.93-3.46,7.92-.18,1.44-.19,1.43,1.23,1.43ZM231.98,27.3s.03,0,.06-.03c2.12-1.84,4.58-2.9,7.38-3.16.15-.01.37-.28.39-.44.05-.51.02-1.03.02-1.55,0-.7-.05-.74-.75-.67-1.83.18-3.6.64-5.26,1.44-1.38.67-2.65,1.51-3.74,2.55.64.63,1.24,1.22,1.89,1.86ZM239.84,50.63c0-1.31,0-1.29-1.33-1.49-1.84-.28-3.53-.94-5.08-1.97-.51-.34-1.1-1.01-1.54-.92-.54.1-.94.85-1.43,1.28-.35.31-.3.51.04.79,2.33,1.97,5.01,3.14,8.02,3.53,1.31.17,1.32.15,1.32-1.22ZM251.49,30.5c0,.08-.03.12-.01.15.82,1.59,1.36,3.26,1.47,5.06.02.35.2.49.54.48.52-.01,1.04-.02,1.55,0,.45.02.63-.12.6-.61-.23-3.08-1.3-5.84-3.19-8.28-.35-.45-1.16-.5-1.61-.14-.15.13-.27.29-.43.41-.48.35-.43.67-.02,1.05.63.57,1.24,1.17,1.85,1.75l-.08.12h-.67ZM249.18,27.05c.46-.22.62-.56.57-1.06-.16-1.61-.15-1.61-1.55-2.44-.1-.06-.2-.12-.31-.18-1.93-1.09-4.02-1.7-6.22-1.93-.52-.05-.74.09-.7.64.03.52-.03,1.04.03,1.55.02.18.26.49.41.49,2.42.05,4.44,1.38,6.65,2.07.42.13.75.56,1.13.85ZM250.21,48.36c-1.08-.92-2.35-1.22-3.49-.71-1.7.77-3.4,1.41-5.26,1.6-.35.04-.5.16-.49.51.01.58,0,1.15,0,1.73,0,.36.15.48.51.45,3.07-.25,5.83-1.29,8.27-3.18.15-.12.28-.25.45-.4ZM255.73,37.32c-.82,0-1.44.03-2.05-.01-.54-.04-.73.16-.77.69-.11,1.57-.49,3.1-1.33,4.42-.64,1.01-.81,1.87-.17,2.91.24.38.3.87.47,1.39.39-.39.64-.65.55-1.19-.07-.41.14-.89.32-1.3.07-.15.4-.29.59-.27.37.05.58-.06.7-.39.41-1.1.88-2.18,1.19-3.3.26-.92.33-1.9.49-2.95ZM227.63,43.19c.34-.36.63-.69.95-.98.25-.23.27-.44.18-.78-.33-1.2-.61-2.42-.87-3.64-.07-.34-.19-.49-.54-.48-.48.01-.95,0-1.43,0-.79,0-.81.02-.73.81.27,2.62,1.13,5.03,2.63,7.2.41.6.89,1.15,1.26,1.62.62-.62,1.17-1.18,1.7-1.72-1.39.06-2.1-1.15-3.15-2.04ZM232.82,28.51c.53.47,1.03.88,1.5,1.33.23.22.4.24.65.04,1.27-1.02,2.71-1.64,4.33-1.83.42-.05.57-.24.54-.67-.03-.44-.03-.88,0-1.31.03-.45-.16-.64-.6-.54-1.04.26-2.1.45-3.1.81-1.19.43-2.27,1.11-3.33,2.16ZM232.2,29.26c-.17.09-.24.11-.28.15-1.58,1.81-2.42,3.94-2.68,6.32-.04.35.15.46.46.46.52,0,1.03,0,1.55,0,.32,0,.44-.14.48-.46.21-1.65.8-3.15,1.83-4.47.09-.11.09-.4.01-.5-.45-.53-.93-1.02-1.38-1.5ZM247.92,28.38c-1.65-1.48-3.48-2.39-5.56-2.72-1.42-.23-1.4-.5-1.38,1.17,0,.1,0,.2,0,.3,0,.85.01.79.82.97,1.19.27,2.37.58,3.53.96.41.13.74.51,1.06.73.5-.46.99-.91,1.54-1.41ZM233.01,45.09c1.86,1.63,3.99,2.53,6.41,2.76.31.03.42-.13.41-.43-.01-.5-.02-.99,0-1.49.02-.41-.17-.51-.54-.61-1.06-.3-2.14-.58-3.14-1.04-1.22-.55-2.32-.37-3.15.81ZM234.43,41.53c1.43-1.43,2.83-2.83,4.21-4.21-1.79,0-3.69,0-5.59.01-.1,0-.29.23-.27.33.18,1.51.75,2.85,1.65,3.86ZM235.62,42.7c.9.92,3.08,1.78,4.17,1.57v-5.74c-1.36,1.35-2.75,2.75-4.17,4.17ZM248.71,29.06c-.49.58-.85,1.05-1.27,1.47-.25.26-.25.43-.08.76.93,1.71,2.11,3.22,3.48,4.59.13.13.36.18.54.26.05-.17.17-.35.15-.52-.14-1.63-.62-3.15-1.46-4.55-.37-.62-.82-1.2-1.37-2ZM237.91,36.19c-.33-.57-.75-1.01-.82-1.5-.09-.66-.5-.91-1.01-1.37-.02.38-.02.61-.04.83-.02.22-.05.44-.09.73-.7-.78-.71-.91-.31-1.74-.41-.48-.77-.91-1.16-1.38-.91,1.11-1.44,2.34-1.69,3.72-.11.61.09.73.62.72,1.05-.02,2.11,0,3.16,0,.45,0,.9,0,1.34,0ZM249.69,42.94c1.09-1.59,1.68-3.32,1.85-5.19.01-.13-.11-.36-.23-.4-1.04-.36-2.13.26-2.41,1.31-.14.54-.35,1.05-.53,1.58-.05.17-.16.35-.12.51.19.87.5,1.68,1.43,2.19ZM243.47,29.55c-.64-.16-1.26-.35-1.89-.45-.16-.02-.52.24-.52.38-.04,1.88-.02,3.75-.02,5.63.54-.5,1.42-.72,1.19-1.75-.08-.38.06-.83.19-1.22.3-.84.66-1.65,1.05-2.59ZM241.02,38.37v4.36c.62-.64,1.2-1.25,1.78-1.85.22-.23.5-.45.14-.78-.27-.25-.52-.74-.95.12-.07-.87-.11-1.58-.96-1.85ZM231.86,38.8c-.07-1.47-.07-1.47-1.34-1.47-1.64,0-1.29-.05-1.12,1.36.07.54.27,1.06.41,1.59.37-.41-.15-.97.61-1.26.48-.19.87-.44,1.44-.21ZM237,32.12c-.03.09-.06.18-.09.27.26.27.52.53.76.8.22.25.41.36.76.13.15-.1.51.01.7.14.23.15.37.43.65.78v-1.71c-.39-.07-.73-.14-1.08-.19-.57-.08-1.14-.15-1.71-.22ZM241.1,46.24s-.08.07-.12.11c0,.35,0,.71,0,1.06-.01.38.19.5.52.43.7-.13,1.4-.25,2.09-.41.33-.07.63-.22.95-.34-1.23-.06-2.46.15-3.44-.85ZM235.33,30.85c.34.32.59.55.9.85.17-.62.31-1.13.44-1.64l-.12-.08c-.38.27-.76.53-1.23.86Z"/>
      <path class="cls-1" d="M242.99,18.68c.2.1.39.2.59.3-.06.1-.16.3-.17.3-.2-.09-.38-.2-.57-.31.05-.1.11-.19.16-.29Z"/>
    </g>
  </g>
</svg>